<?xml version="1.0" encoding="UTF-8"?>
<svg id="Layer_1" data-name="Layer 1" xmlns="http://www.w3.org/2000/svg" viewBox="0 0 436.94 376.24">
  <defs>
    <style>
      .cls-1 {
        fill: #fff;
      }

      .cls-1, .cls-2 {
        stroke: #231f20;
        stroke-miterlimit: 10;
      }

      .cls-2 {
        fill: #231f20;
      }
    </style>
  </defs>
  <circle class="cls-1" cx="217.51" cy="188.81" r="179.46"/>
  <circle class="cls-1" cx="218.29" cy="188.81" r="153.18"/>
  <rect class="cls-1" x="106.08" y="170.8" width="226.61" height="41.01"/>
  <ellipse class="cls-1" cx="219.39" cy="170.8" rx="113.31" ry="6.82"/>
  <ellipse class="cls-1" cx="219.39" cy="211.81" rx="113.31" ry="6.82"/>
  <polygon class="cls-2" points="113.69 191.3 128.37 199.78 128.37 182.82 113.69 191.3"/>
  <polygon class="cls-2" points="328.05 191.3 313.36 199.78 313.36 182.82 328.05 191.3"/>
  <g>
    <path class="cls-2" d="m80.3,60.52L6.72,85.91l25.54,16.03c-12.4,25.66-19.04,52.76-20.15,81.21-.38,9.74-.05,19.45.96,29.11l15-3.88c-.52-5.72-.79-11.51-.79-17.35-.03-33.83,8.86-65.63,24.43-93.19.25-.43.51-.88.75-1.35,7.81-15.1,27.84-35.98,27.84-35.98Z"/>
    <path class="cls-2" d="m28.74,214.68l-14.93,3.86c.24,1.8.51,3.6.8,5.4.97,5.99,2.2,11.9,3.68,17.73l14.81-3.83c-1.92-7.55-3.38-15.28-4.36-23.16Z"/>
    <path class="cls-2" d="m34.75,243.87l-14.82,3.84c1.22,4.27,2.59,8.5,4.09,12.68l14.91-3.86c-1.53-4.16-2.93-8.37-4.17-12.66Z"/>
    <path class="cls-2" d="m41.2,262.4l-14.96,3.87c.53,1.35,1.08,2.7,1.65,4.04l15.01-3.88c-.58-1.34-1.14-2.68-1.69-4.03Z"/>
    <path class="cls-2" d="m30.43,276.11c.65,1.43,1.32,2.85,2.01,4.27h17.18c-1.44-2.68-2.79-5.42-4.1-8.18l-15.08,3.9Z"/>
  </g>
  <g>
    <path class="cls-2" d="m402.88,277.94c11.71-24.91,18.06-52.03,19.11-81.29.42-11.59-.35-23.14-1.97-34.64,0,0,0-.02,0-.02l-14.92,3.86c1.17,8.85,1.74,17.89,1.66,27.11-.3,31.56-8.34,61.3-22.3,87.42h0c-.63.87-1.24,1.84-1.83,2.98-7.81,15.1-27.84,35.98-27.84,35.98l73.57-25.4-25.49-16Z"/>
    <path class="cls-2" d="m402.14,149.23l14.83-3.84c-.98-4.33-2.1-8.62-3.36-12.87l-14.82,3.84c1.27,4.23,2.38,8.52,3.36,12.87Z"/>
    <path class="cls-2" d="m396.89,130.39l14.85-3.84c-2.47-7.48-5.39-14.82-8.75-22.02l-15.08,3.9c3.43,7.08,6.44,14.41,8.98,21.96Z"/>
    <path class="cls-2" d="m400.21,98.79c-.39-.77-.78-1.53-1.17-2.29h-17.42c1.18,2.05,2.31,4.12,3.41,6.22l15.18-3.93Z"/>
    <path class="cls-2" d="m404.17,159.63l14.86-3.85c-.25-1.43-.51-2.85-.78-4.27l-14.84,3.84c.27,1.42.52,2.84.76,4.27Z"/>
  </g>
</svg>